<svg width="32" height="32" viewBox="0 0 32 32" fill="none" xmlns="http://www.w3.org/2000/svg">
<path fill-rule="evenodd" clip-rule="evenodd" d="M21.5592 6.85611L23.8284 8.70295C24.0475 8.91643 24.1702 9.20987 24.1685 9.51577C24.1667 9.82166 24.0406 10.1137 23.819 10.3246L22.0947 12.4246L16.2264 19.5844C16.1248 19.7041 15.988 19.7886 15.8355 19.8259L12.7929 20.5259C12.3891 20.5426 12.041 20.2449 11.9949 19.8434L12.1372 16.8416C12.1478 16.6884 12.2084 16.5428 12.3099 16.4274L17.925 9.58495L19.9025 7.17228C20.2868 6.64931 21.0094 6.51139 21.5592 6.85611Z" stroke="#D3D4D9" stroke-width="1.5" stroke-linecap="round" stroke-linejoin="round"/>
<path d="M7.83334 23.4066C7.41913 23.4066 7.08334 23.7424 7.08334 24.1566C7.08334 24.5708 7.41913 24.9066 7.83334 24.9066V23.4066ZM23.8167 24.9066C24.2309 24.9066 24.5667 24.5708 24.5667 24.1566C24.5667 23.7424 24.2309 23.4066 23.8167 23.4066V24.9066ZM18.6205 9.30424C18.4655 8.92014 18.0284 8.73444 17.6443 8.88948C17.2602 9.04452 17.0745 9.48158 17.2295 9.86568L18.6205 9.30424ZM22.2599 13.1597C22.664 13.0684 22.9175 12.6669 22.8262 12.2629C22.735 11.8588 22.3334 11.6053 21.9294 11.6966L22.2599 13.1597ZM7.83334 24.9066H23.8167V23.4066H7.83334V24.9066ZM17.2295 9.86568C17.4955 10.5246 18.0432 11.4657 18.8556 12.1882C19.6813 12.9225 20.8454 13.4792 22.2599 13.1597L21.9294 11.6966C21.1284 11.8775 20.4411 11.5908 19.8524 11.0673C19.2506 10.5322 18.8212 9.80146 18.6205 9.30424L17.2295 9.86568Z" fill="#D3D4D9"/>
</svg>
