<svg width="70" height="70" viewBox="0 0 70 70" fill="none" xmlns="http://www.w3.org/2000/svg">
<g clip-path="url(#clip0_118_3826)">
<path d="M32.0537 5.72651C32.4693 2.23836 37.5307 2.23836 37.9463 5.72651C38.2862 8.57834 42.0751 9.332 43.4804 6.8273C45.1993 3.76373 49.8754 5.70065 48.9245 9.08234C48.1471 11.8471 51.3593 13.9934 53.6161 12.2171C56.3765 10.0445 59.9555 13.6235 57.7829 16.3839C56.0066 18.6407 58.1529 21.8528 60.9177 21.0755C64.2993 20.1246 66.2363 24.8007 63.1727 26.5196C60.668 27.9249 61.4217 31.7138 64.2735 32.0537C67.7616 32.4693 67.7616 37.5307 64.2735 37.9463C61.4217 38.2862 60.668 42.0751 63.1727 43.4804C66.2363 45.1993 64.2993 49.8754 60.9177 48.9245C58.1529 48.1471 56.0066 51.3593 57.7829 53.6161C59.9555 56.3765 56.3765 59.9555 53.6161 57.7829C51.3593 56.0066 48.1471 58.1529 48.9245 60.9177C49.8754 64.2993 45.1993 66.2363 43.4804 63.1727C42.0751 60.668 38.2862 61.4217 37.9463 64.2735C37.5307 67.7616 32.4693 67.7616 32.0537 64.2735C31.7138 61.4217 27.9249 60.668 26.5196 63.1727C24.8007 66.2363 20.1246 64.2993 21.0755 60.9177C21.8528 58.1529 18.6407 56.0066 16.3839 57.7829C13.6235 59.9555 10.0445 56.3765 12.2171 53.6161C13.9934 51.3593 11.8471 48.1471 9.08234 48.9245C5.70065 49.8754 3.76373 45.1993 6.8273 43.4804C9.332 42.0751 8.57834 38.2862 5.72651 37.9463C2.23836 37.5307 2.23837 32.4693 5.72651 32.0537C8.57834 31.7138 9.33201 27.9249 6.8273 26.5196C3.76373 24.8007 5.70065 20.1246 9.08234 21.0755C11.8471 21.8528 13.9934 18.6407 12.2171 16.3839C10.0445 13.6235 13.6235 10.0445 16.3839 12.2171C18.6407 13.9934 21.8528 11.8471 21.0755 9.08234C20.1246 5.70065 24.8007 3.76373 26.5196 6.8273C27.9249 9.332 31.7138 8.57834 32.0537 5.72651Z" fill="#83AFF7"/>
</g>
<defs>
<clipPath id="clip0_118_3826">
<rect width="70" height="70" fill="white"/>
</clipPath>
</defs>
</svg>
