<svg width="40" height="40" viewBox="0 0 40 40" fill="none" xmlns="http://www.w3.org/2000/svg">
<rect width="40" height="40" rx="20" fill="#E0EBFD"/>
<g clip-path="url(#clip0_269_2078)">
<path d="M18.0313 30.4998C17.8239 30.5008 17.6211 30.4386 17.45 30.3213C17.279 30.204 17.1478 30.0373 17.074 29.8435L15.4399 25.5943C15.4068 25.5087 15.3562 25.4309 15.2913 25.366C15.2264 25.3011 15.1486 25.2505 15.063 25.2174L10.8125 23.5821C10.6189 23.5078 10.4524 23.3765 10.3349 23.2056C10.2174 23.0347 10.1545 22.8322 10.1545 22.6248C10.1545 22.4174 10.2174 22.2149 10.3349 22.044C10.4524 21.8731 10.6189 21.7418 10.8125 21.6675L15.0617 20.0334C15.1474 20.0003 15.2251 19.9497 15.29 19.8848C15.3549 19.8199 15.4056 19.7421 15.4387 19.6565L17.074 15.406C17.1483 15.2124 17.2795 15.0459 17.4505 14.9284C17.6214 14.8109 17.8239 14.748 18.0313 14.748C18.2387 14.748 18.4412 14.8109 18.6121 14.9284C18.783 15.0459 18.9143 15.2124 18.9886 15.406L20.6226 19.6552C20.6557 19.7409 20.7064 19.8186 20.7713 19.8835C20.8362 19.9485 20.9139 19.9991 20.9996 20.0322L25.2242 21.6576C25.4257 21.7323 25.5993 21.8673 25.7213 22.0442C25.8434 22.221 25.9079 22.4312 25.9063 22.6461C25.9031 22.8499 25.8389 23.048 25.7219 23.2149C25.6049 23.3818 25.4405 23.5097 25.25 23.5821L21.0008 25.2161C20.9152 25.2492 20.8374 25.2999 20.7725 25.3648C20.7076 25.4297 20.657 25.5074 20.6239 25.5931L18.9886 29.8435C18.9148 30.0373 18.7836 30.204 18.6125 30.3213C18.4414 30.4386 18.2387 30.5008 18.0313 30.4998Z" fill="#5693F4"/>
<path d="M13.1094 16.7186C12.9878 16.7186 12.8691 16.6818 12.7688 16.613C12.6686 16.5441 12.5916 16.4466 12.5479 16.3331L11.8564 14.535C11.8414 14.4956 11.8182 14.4599 11.7885 14.4302C11.7587 14.4004 11.723 14.3773 11.6837 14.3623L9.88556 13.6708C9.7721 13.6271 9.67454 13.55 9.60573 13.4498C9.53692 13.3496 9.50009 13.2308 9.50009 13.1093C9.50009 12.9877 9.53692 12.869 9.60573 12.7687C9.67454 12.6685 9.7721 12.5914 9.88556 12.5478L11.6837 11.8562C11.723 11.8412 11.7587 11.818 11.7884 11.7883C11.8182 11.7585 11.8413 11.7228 11.8564 11.6836L12.5417 9.90143C12.5804 9.79651 12.6469 9.70411 12.7341 9.63416C12.8213 9.56421 12.926 9.51935 13.0368 9.5044C13.1698 9.48823 13.3044 9.51693 13.4193 9.58595C13.5342 9.65498 13.6227 9.76038 13.6709 9.88543L14.3624 11.6836C14.3775 11.7228 14.4006 11.7585 14.4304 11.7883C14.4601 11.818 14.4958 11.8412 14.5351 11.8562L16.3332 12.5478C16.4467 12.5914 16.5442 12.6685 16.613 12.7687C16.6819 12.869 16.7187 12.9877 16.7187 13.1093C16.7187 13.2308 16.6819 13.3496 16.613 13.4498C16.5442 13.55 16.4467 13.6271 16.3332 13.6708L14.5351 14.3623C14.4958 14.3773 14.4601 14.4004 14.4303 14.4302C14.4005 14.4599 14.3774 14.4956 14.3624 14.535L13.6709 16.3331C13.6272 16.4466 13.5502 16.5441 13.4499 16.613C13.3497 16.6818 13.231 16.7186 13.1094 16.7186Z" fill="#C8DCFB"/>
<path d="M25.9063 19.9998C25.7736 19.9997 25.6441 19.9595 25.5348 19.8844C25.4255 19.8092 25.3415 19.7027 25.2939 19.5789L24.3571 17.1438C24.3406 17.1009 24.3153 17.062 24.2828 17.0295C24.2503 16.997 24.2113 16.9716 24.1684 16.9552L21.7333 16.0184C21.6096 15.9707 21.5032 15.8867 21.4282 15.7774C21.3532 15.6681 21.313 15.5386 21.313 15.406C21.313 15.2734 21.3532 15.144 21.4282 15.0346C21.5032 14.9253 21.6096 14.8413 21.7333 14.7936L24.1684 13.8568C24.2113 13.8404 24.2503 13.8151 24.2828 13.7826C24.3153 13.7501 24.3406 13.7111 24.3571 13.6682L25.2869 11.2503C25.3294 11.136 25.402 11.0353 25.4971 10.9589C25.5922 10.8826 25.7063 10.8335 25.8271 10.8168C25.9723 10.7992 26.1192 10.8306 26.2444 10.906C26.3697 10.9815 26.4662 11.0966 26.5186 11.2331L27.4554 13.6682C27.4719 13.7111 27.4972 13.7501 27.5297 13.7826C27.5622 13.8151 27.6012 13.8404 27.6441 13.8568L30.0792 14.7936C30.2029 14.8413 30.3093 14.9253 30.3843 15.0346C30.4593 15.144 30.4995 15.2734 30.4995 15.406C30.4995 15.5386 30.4593 15.6681 30.3843 15.7774C30.3093 15.8867 30.2029 15.9707 30.0792 16.0184L27.6441 16.9552C27.6012 16.9716 27.5622 16.997 27.5297 17.0295C27.4972 17.062 27.4719 17.1009 27.4554 17.1438L26.5186 19.5789C26.471 19.7027 26.387 19.8092 26.2777 19.8844C26.1684 19.9595 26.0389 19.9997 25.9063 19.9998Z" fill="#A9C8FA"/>
</g>
<defs>
<clipPath id="clip0_269_2078">
<rect width="21" height="21" fill="white" transform="translate(9.5 9.5)"/>
</clipPath>
</defs>
</svg>
