<svg width="32" height="32" viewBox="0 0 32 32" fill="none" xmlns="http://www.w3.org/2000/svg">
<path fill-rule="evenodd" clip-rule="evenodd" d="M7.83334 13.6667V20.6667C7.83334 23.244 9.92268 25.3333 12.5 25.3333H19.5C22.0773 25.3333 24.1667 23.244 24.1667 20.6667V13.6667C24.1667 11.0893 22.0773 9 19.5 9H12.5C9.92268 9 7.83334 11.0893 7.83334 13.6667Z" stroke="#D3D4D9" stroke-width="1.5" stroke-linecap="round" stroke-linejoin="round"/>
<path d="M17.5833 10.1667C17.5833 10.581 17.9191 10.9167 18.3333 10.9167C18.7475 10.9167 19.0833 10.581 19.0833 10.1667H17.5833ZM19.0833 6.66675C19.0833 6.25253 18.7475 5.91675 18.3333 5.91675C17.9191 5.91675 17.5833 6.25253 17.5833 6.66675H19.0833ZM12.9167 10.1667C12.9167 10.581 13.2525 10.9167 13.6667 10.9167C14.0809 10.9167 14.4167 10.581 14.4167 10.1667H12.9167ZM14.4167 6.66675C14.4167 6.25253 14.0809 5.91675 13.6667 5.91675C13.2525 5.91675 12.9167 6.25253 12.9167 6.66675H14.4167ZM19.5 14.4167C19.9142 14.4167 20.25 14.081 20.25 13.6667C20.25 13.2525 19.9142 12.9167 19.5 12.9167V14.4167ZM12.5 12.9167C12.0858 12.9167 11.75 13.2525 11.75 13.6667C11.75 14.081 12.0858 14.4167 12.5 14.4167V12.9167ZM19.5 17.9167C19.9142 17.9167 20.25 17.581 20.25 17.1667C20.25 16.7525 19.9142 16.4167 19.5 16.4167V17.9167ZM12.5 16.4167C12.0858 16.4167 11.75 16.7525 11.75 17.1667C11.75 17.581 12.0858 17.9167 12.5 17.9167V16.4167ZM16 21.4167C16.4142 21.4167 16.75 21.081 16.75 20.6667C16.75 20.2525 16.4142 19.9167 16 19.9167V21.4167ZM12.5 19.9167C12.0858 19.9167 11.75 20.2525 11.75 20.6667C11.75 21.081 12.0858 21.4167 12.5 21.4167V19.9167ZM19.0833 10.1667V6.66675H17.5833V10.1667H19.0833ZM14.4167 10.1667V6.66675H12.9167V10.1667H14.4167ZM19.5 12.9167H12.5V14.4167H19.5V12.9167ZM19.5 16.4167H12.5V17.9167H19.5V16.4167ZM16 19.9167H12.5V21.4167H16V19.9167Z" fill="#D3D4D9"/>
</svg>
