<svg width="70" height="70" viewBox="0 0 70 70" fill="none" xmlns="http://www.w3.org/2000/svg">
<g clip-path="url(#clip0_118_3831)">
<path d="M24.3294 9.37954C27.8454 -1.44167 43.1546 -1.44167 46.6706 9.37954C48.243 14.2189 52.7527 17.4955 57.8412 17.4955C69.2193 17.4955 73.9501 32.0553 64.745 38.7432C60.6284 41.7341 58.9058 47.0356 60.4782 51.875C63.9942 62.6962 51.6089 71.6947 42.4038 65.0068C38.2872 62.0159 32.7128 62.0159 28.5962 65.0068C19.3911 71.6947 7.00578 62.6962 10.5218 51.875C12.0942 47.0356 10.3716 41.7341 6.25501 38.7432C-2.95006 32.0553 1.78072 17.4955 13.1588 17.4955C18.2473 17.4955 22.757 14.2189 24.3294 9.37954Z" fill="#83AFF7"/>
</g>
<defs>
<clipPath id="clip0_118_3831">
<rect width="70" height="70" fill="white"/>
</clipPath>
</defs>
</svg>
